<svg width="13" height="14" viewBox="0 0 13 14" fill="none" xmlns="http://www.w3.org/2000/svg">
<path d="M3.9134 1.48784C3.50398 1.48784 3.17207 1.81975 3.17207 2.22918C3.17207 2.6386 3.50398 2.97051 3.9134 2.97051C4.32283 2.97051 4.65474 2.6386 4.65474 2.22918C4.65474 1.81975 4.32283 1.48784 3.9134 1.48784ZM1.81595 1.48784C2.12125 0.624047 2.94506 0.00517273 3.9134 0.00517273C4.88173 0.00517273 5.70558 0.624047 6.01086 1.48784H11.3268C11.7362 1.48784 12.0681 1.81975 12.0681 2.22918C12.0681 2.6386 11.7362 2.97051 11.3268 2.97051H6.01086C5.70558 3.83431 4.88173 4.45318 3.9134 4.45318C2.94506 4.45318 2.12125 3.83431 1.81595 2.97051H0.948061C0.538637 2.97051 0.206726 2.6386 0.206726 2.22918C0.206726 1.81975 0.538637 1.48784 0.948061 1.48784H1.81595ZM8.36141 5.93585C7.95197 5.93585 7.62008 6.26775 7.62008 6.67719C7.62008 7.08663 7.95197 7.41852 8.36141 7.41852C8.77085 7.41852 9.10275 7.08663 9.10275 6.67719C9.10275 6.26775 8.77085 5.93585 8.36141 5.93585ZM6.26395 5.93585C6.56924 5.07206 7.39308 4.45318 8.36141 4.45318C9.32975 4.45318 10.1536 5.07206 10.4589 5.93585H11.3268C11.7362 5.93585 12.0681 6.26775 12.0681 6.67719C12.0681 7.08663 11.7362 7.41852 11.3268 7.41852H10.4589C10.1536 8.28233 9.32975 8.9012 8.36141 8.9012C7.39308 8.9012 6.56924 8.28233 6.26395 7.41852H0.948061C0.538637 7.41852 0.206726 7.08663 0.206726 6.67719C0.206726 6.26775 0.538637 5.93585 0.948061 5.93585H6.26395ZM3.9134 10.3839C3.50398 10.3839 3.17207 10.7158 3.17207 11.1252C3.17207 11.5346 3.50398 11.8665 3.9134 11.8665C4.32283 11.8665 4.65474 11.5346 4.65474 11.1252C4.65474 10.7158 4.32283 10.3839 3.9134 10.3839ZM1.81595 10.3839C2.12125 9.52006 2.94506 8.9012 3.9134 8.9012C4.88173 8.9012 5.70558 9.52006 6.01086 10.3839H11.3268C11.7362 10.3839 12.0681 10.7158 12.0681 11.1252C12.0681 11.5346 11.7362 11.8665 11.3268 11.8665H6.01086C5.70558 12.7303 4.88173 13.3492 3.9134 13.3492C2.94506 13.3492 2.12125 12.7303 1.81595 11.8665H0.948061C0.538637 11.8665 0.206726 11.5346 0.206726 11.1252C0.206726 10.7158 0.538637 10.3839 0.948061 10.3839H1.81595Z" fill="#6E6E6E"/>
</svg>
