<svg width="950" height="1080" viewBox="0 0 950 1080" fill="none" xmlns="http://www.w3.org/2000/svg">
<g filter="url(#filter0_b_1_774)">
<rect width="950" height="1080" fill="#05BB75"/>
</g>
<mask id="mask0_1_774" style="mask-type:alpha" maskUnits="userSpaceOnUse" x="0" y="0" width="950" height="1080">
<rect width="950" height="1080" fill="#05BB75"/>
</mask>
<g mask="url(#mask0_1_774)">
<g opacity="0.3">
<path opacity="0.62" d="M8.79523 -32.1505L-36.024 12.6688" stroke="black" stroke-width="2.90495"/>
<path opacity="0.62" d="M53.6144 -32.1505L8.79517 12.6688" stroke="black" stroke-width="2.90495"/>
<path opacity="0.62" d="M53.6145 -32.1505L98.4338 12.6688" stroke="black" stroke-width="2.90495"/>
<path opacity="0.62" d="M98.4337 -32.1505L143.253 12.6688" stroke="black" stroke-width="2.90495"/>
<path opacity="0.62" d="M143.253 -32.1505L188.072 12.6688" stroke="black" stroke-width="2.90495"/>
<path opacity="0.62" d="M188.072 -32.1505L232.892 12.6688" stroke="black" stroke-width="2.90495"/>
<path opacity="0.62" d="M277.711 -32.1505L232.892 12.6688" stroke="black" stroke-width="2.90495"/>
<path opacity="0.62" d="M277.711 -32.1505L322.53 12.6688" stroke="black" stroke-width="2.90495"/>
<path opacity="0.62" d="M367.349 -32.1505L322.53 12.6688" stroke="black" stroke-width="2.90495"/>
<path opacity="0.62" d="M367.349 -32.1505L412.169 12.6688" stroke="black" stroke-width="2.90495"/>
<path opacity="0.62" d="M456.988 -32.1505L412.169 12.6688" stroke="black" stroke-width="2.90495"/>
<path opacity="0.62" d="M456.988 -32.1505L501.807 12.6688" stroke="black" stroke-width="2.90495"/>
<path opacity="0.62" d="M501.807 -32.1505L546.627 12.6688" stroke="black" stroke-width="2.90495"/>
<path opacity="0.62" d="M546.627 -32.1505L591.446 12.6688" stroke="black" stroke-width="2.90495"/>
<path opacity="0.62" d="M636.265 -32.1505L591.446 12.6688" stroke="black" stroke-width="2.90495"/>
<path opacity="0.62" d="M636.265 -32.1505L681.084 12.6688" stroke="black" stroke-width="2.90495"/>
<path opacity="0.62" d="M725.904 -32.1505L681.084 12.6688" stroke="black" stroke-width="2.90495"/>
<path opacity="0.62" d="M725.904 -32.1505L770.723 12.6688" stroke="black" stroke-width="2.90495"/>
<path opacity="0.62" d="M815.542 -32.1505L770.723 12.6688" stroke="black" stroke-width="2.90495"/>
<path opacity="0.62" d="M860.361 -32.1505L815.542 12.6688" stroke="black" stroke-width="2.90495"/>
<path opacity="0.62" d="M905.181 -32.1505L860.361 12.6688" stroke="black" stroke-width="2.90495"/>
<path opacity="0.62" d="M950 -32.1505L905.181 12.6688" stroke="black" stroke-width="2.90495"/>
<path opacity="0.55" d="M8.79523 12.6688L-36.024 57.488" stroke="black" stroke-width="2.90495"/>
<path opacity="0.55" d="M53.6144 12.6688L8.79517 57.488" stroke="black" stroke-width="2.90495"/>
<path opacity="0.55" d="M53.6145 12.6688L98.4338 57.488" stroke="black" stroke-width="2.90495"/>
<path opacity="0.55" d="M143.253 12.6688L98.4337 57.488" stroke="black" stroke-width="2.90495"/>
<path opacity="0.55" d="M143.253 12.6688L188.072 57.488" stroke="black" stroke-width="2.90495"/>
<path opacity="0.55" d="M232.892 12.6688L188.072 57.488" stroke="black" stroke-width="2.90495"/>
<path opacity="0.55" d="M277.711 12.6688L232.892 57.488" stroke="black" stroke-width="2.90495"/>
<path opacity="0.55" d="M277.711 12.6688L322.53 57.488" stroke="black" stroke-width="2.90495"/>
<path opacity="0.55" d="M367.349 12.6688L322.53 57.488" stroke="black" stroke-width="2.90495"/>
<path opacity="0.55" d="M367.349 12.6688L412.169 57.488" stroke="black" stroke-width="2.90495"/>
<path opacity="0.55" d="M456.988 12.6688L412.169 57.488" stroke="black" stroke-width="2.90495"/>
<path opacity="0.55" d="M456.988 12.6688L501.807 57.488" stroke="black" stroke-width="2.90495"/>
<path opacity="0.55" d="M546.627 12.6688L501.807 57.488" stroke="black" stroke-width="2.90495"/>
<path opacity="0.55" d="M591.446 12.6688L546.627 57.488" stroke="black" stroke-width="2.90495"/>
<path opacity="0.55" d="M591.446 12.6688L636.265 57.488" stroke="black" stroke-width="2.90495"/>
<path opacity="0.55" d="M681.084 12.6688L636.265 57.488" stroke="black" stroke-width="2.90495"/>
<path opacity="0.55" d="M681.084 12.6688L725.904 57.488" stroke="black" stroke-width="2.90495"/>
<path opacity="0.55" d="M770.723 12.6688L725.904 57.488" stroke="black" stroke-width="2.90495"/>
<path opacity="0.55" d="M770.723 12.6688L815.542 57.488" stroke="black" stroke-width="2.90495"/>
<path opacity="0.55" d="M860.361 12.6688L815.542 57.488" stroke="black" stroke-width="2.90495"/>
<path opacity="0.55" d="M860.361 12.6688L905.181 57.488" stroke="black" stroke-width="2.90495"/>
<path opacity="0.55" d="M905.181 12.6688L950 57.488" stroke="black" stroke-width="2.90495"/>
<path opacity="0.49" d="M-36.024 57.488L8.79523 102.307" stroke="black" stroke-width="2.90495"/>
<path opacity="0.49" d="M53.6144 57.488L8.79517 102.307" stroke="black" stroke-width="2.90495"/>
<path opacity="0.49" d="M53.6145 57.488L98.4338 102.307" stroke="black" stroke-width="2.90495"/>
<path opacity="0.49" d="M98.4337 57.488L143.253 102.307" stroke="black" stroke-width="2.90495"/>
<path opacity="0.49" d="M188.072 57.488L143.253 102.307" stroke="black" stroke-width="2.90495"/>
<path opacity="0.49" d="M232.892 57.488L188.072 102.307" stroke="black" stroke-width="2.90495"/>
<path opacity="0.49" d="M277.711 57.488L232.892 102.307" stroke="black" stroke-width="2.90495"/>
<path opacity="0.49" d="M322.53 57.488L277.711 102.307" stroke="black" stroke-width="2.90495"/>
<path opacity="0.49" d="M322.53 57.488L367.349 102.307" stroke="black" stroke-width="2.90495"/>
<path opacity="0.49" d="M367.349 57.488L412.169 102.307" stroke="black" stroke-width="2.90495"/>
<path opacity="0.49" d="M412.169 57.488L456.988 102.307" stroke="black" stroke-width="2.90495"/>
<path opacity="0.49" d="M456.988 57.488L501.807 102.307" stroke="black" stroke-width="2.90495"/>
<path opacity="0.49" d="M546.627 57.488L501.807 102.307" stroke="black" stroke-width="2.90495"/>
<path opacity="0.49" d="M591.446 57.488L546.627 102.307" stroke="black" stroke-width="2.90495"/>
<path opacity="0.49" d="M591.446 57.488L636.265 102.307" stroke="black" stroke-width="2.90495"/>
<path opacity="0.49" d="M681.084 57.488L636.265 102.307" stroke="black" stroke-width="2.90495"/>
<path opacity="0.49" d="M725.904 57.488L681.084 102.307" stroke="black" stroke-width="2.90495"/>
<path opacity="0.49" d="M770.723 57.488L725.904 102.307" stroke="black" stroke-width="2.90495"/>
<path opacity="0.49" d="M770.723 57.488L815.542 102.307" stroke="black" stroke-width="2.90495"/>
<path opacity="0.49" d="M815.542 57.488L860.361 102.307" stroke="black" stroke-width="2.90495"/>
<path opacity="0.49" d="M905.181 57.488L860.361 102.307" stroke="black" stroke-width="2.90495"/>
<path opacity="0.49" d="M950 57.488L905.181 102.307" stroke="black" stroke-width="2.90495"/>
<path opacity="0.42" d="M8.79523 102.307L-36.024 147.127" stroke="black" stroke-width="2.90495"/>
<path opacity="0.42" d="M8.79517 102.307L53.6144 147.127" stroke="black" stroke-width="2.90495"/>
<path opacity="0.42" d="M98.4338 102.307L53.6145 147.127" stroke="black" stroke-width="2.90495"/>
<path opacity="0.42" d="M143.253 102.307L98.4337 147.127" stroke="black" stroke-width="2.90495"/>
<path opacity="0.42" d="M143.253 102.307L188.072 147.127" stroke="black" stroke-width="2.90495"/>
<path opacity="0.42" d="M188.072 102.307L232.892 147.127" stroke="black" stroke-width="2.90495"/>
<path opacity="0.42" d="M232.892 102.307L277.711 147.127" stroke="black" stroke-width="2.90495"/>
<path opacity="0.42" d="M322.53 102.307L277.711 147.127" stroke="black" stroke-width="2.90495"/>
<path opacity="0.42" d="M367.349 102.307L322.53 147.127" stroke="black" stroke-width="2.90495"/>
<path opacity="0.42" d="M412.169 102.307L367.349 147.127" stroke="black" stroke-width="2.90495"/>
<path opacity="0.42" d="M456.988 102.307L412.169 147.127" stroke="black" stroke-width="2.90495"/>
<path opacity="0.42" d="M456.988 102.307L501.807 147.127" stroke="black" stroke-width="2.90495"/>
<path opacity="0.42" d="M546.627 102.307L501.807 147.127" stroke="black" stroke-width="2.90495"/>
<path opacity="0.42" d="M591.446 102.307L546.627 147.127" stroke="black" stroke-width="2.90495"/>
<path opacity="0.42" d="M591.446 102.307L636.265 147.127" stroke="black" stroke-width="2.90495"/>
<path opacity="0.42" d="M636.265 102.307L681.084 147.127" stroke="black" stroke-width="2.90495"/>
<path opacity="0.42" d="M681.084 102.307L725.904 147.127" stroke="black" stroke-width="2.90495"/>
<path opacity="0.42" d="M770.723 102.307L725.904 147.127" stroke="black" stroke-width="2.90495"/>
<path opacity="0.42" d="M770.723 102.307L815.542 147.127" stroke="black" stroke-width="2.90495"/>
<path opacity="0.42" d="M860.361 102.307L815.542 147.127" stroke="black" stroke-width="2.90495"/>
<path opacity="0.42" d="M905.181 102.307L860.361 147.127" stroke="black" stroke-width="2.90495"/>
<path opacity="0.42" d="M905.181 102.307L950 147.127" stroke="black" stroke-width="2.90495"/>
<path opacity="0.36" d="M8.79523 147.127L-36.024 191.946" stroke="black" stroke-width="2.90495"/>
<path opacity="0.36" d="M8.79517 147.127L53.6144 191.946" stroke="black" stroke-width="2.90495"/>
<path opacity="0.36" d="M98.4338 147.127L53.6145 191.946" stroke="black" stroke-width="2.90495"/>
<path opacity="0.36" d="M98.4337 147.127L143.253 191.946" stroke="black" stroke-width="2.90495"/>
<path opacity="0.36" d="M143.253 147.127L188.072 191.946" stroke="black" stroke-width="2.90495"/>
<path opacity="0.36" d="M232.892 147.127L188.072 191.946" stroke="black" stroke-width="2.90495"/>
<path opacity="0.36" d="M232.892 147.127L277.711 191.946" stroke="black" stroke-width="2.90495"/>
<path opacity="0.36" d="M322.53 147.127L277.711 191.946" stroke="black" stroke-width="2.90495"/>
<path opacity="0.36" d="M367.349 147.127L322.53 191.946" stroke="black" stroke-width="2.90495"/>
<path opacity="0.36" d="M412.169 147.127L367.349 191.946" stroke="black" stroke-width="2.90495"/>
<path opacity="0.36" d="M412.169 147.127L456.988 191.946" stroke="black" stroke-width="2.90495"/>
<path opacity="0.36" d="M456.988 147.127L501.807 191.946" stroke="black" stroke-width="2.90495"/>
<path opacity="0.36" d="M501.807 147.127L546.627 191.946" stroke="black" stroke-width="2.90495"/>
<path opacity="0.36" d="M591.446 147.127L546.627 191.946" stroke="black" stroke-width="2.90495"/>
<path opacity="0.36" d="M591.446 147.127L636.265 191.946" stroke="black" stroke-width="2.90495"/>
<path opacity="0.36" d="M681.084 147.127L636.265 191.946" stroke="black" stroke-width="2.90495"/>
<path opacity="0.36" d="M725.904 147.127L681.084 191.946" stroke="black" stroke-width="2.90495"/>
<path opacity="0.36" d="M770.723 147.127L725.904 191.946" stroke="black" stroke-width="2.90495"/>
<path opacity="0.36" d="M770.723 147.127L815.542 191.946" stroke="black" stroke-width="2.90495"/>
<path opacity="0.36" d="M815.542 147.127L860.361 191.946" stroke="black" stroke-width="2.90495"/>
<path opacity="0.36" d="M905.181 147.127L860.361 191.946" stroke="black" stroke-width="2.90495"/>
<path opacity="0.36" d="M950 147.127L905.181 191.946" stroke="black" stroke-width="2.90495"/>
<path opacity="0.29" d="M-36.024 191.946L8.79523 236.765" stroke="black" stroke-width="2.90495"/>
<path opacity="0.29" d="M8.79517 191.946L53.6144 236.765" stroke="black" stroke-width="2.90495"/>
<path opacity="0.29" d="M98.4338 191.946L53.6145 236.765" stroke="black" stroke-width="2.90495"/>
<path opacity="0.29" d="M143.253 191.946L98.4337 236.765" stroke="black" stroke-width="2.90495"/>
<path opacity="0.29" d="M143.253 191.946L188.072 236.765" stroke="black" stroke-width="2.90495"/>
<path opacity="0.29" d="M232.892 191.946L188.072 236.765" stroke="black" stroke-width="2.90495"/>
<path opacity="0.29" d="M277.711 191.946L232.892 236.765" stroke="black" stroke-width="2.90495"/>
<path opacity="0.29" d="M277.711 191.946L322.53 236.765" stroke="black" stroke-width="2.90495"/>
<path opacity="0.29" d="M367.349 191.946L322.53 236.765" stroke="black" stroke-width="2.90495"/>
<path opacity="0.29" d="M412.169 191.946L367.349 236.765" stroke="black" stroke-width="2.90495"/>
<path opacity="0.29" d="M412.169 191.946L456.988 236.765" stroke="black" stroke-width="2.90495"/>
<path opacity="0.29" d="M456.988 191.946L501.807 236.765" stroke="black" stroke-width="2.90495"/>
<path opacity="0.29" d="M501.807 191.946L546.627 236.765" stroke="black" stroke-width="2.90495"/>
<path opacity="0.29" d="M591.446 191.946L546.627 236.765" stroke="black" stroke-width="2.90495"/>
<path opacity="0.29" d="M591.446 191.946L636.265 236.765" stroke="black" stroke-width="2.90495"/>
<path opacity="0.29" d="M636.265 191.946L681.084 236.765" stroke="black" stroke-width="2.90495"/>
<path opacity="0.29" d="M725.904 191.946L681.084 236.765" stroke="black" stroke-width="2.90495"/>
<path opacity="0.29" d="M725.904 191.946L770.723 236.765" stroke="black" stroke-width="2.90495"/>
<path opacity="0.29" d="M770.723 191.946L815.542 236.765" stroke="black" stroke-width="2.90495"/>
<path opacity="0.29" d="M815.542 191.946L860.361 236.765" stroke="black" stroke-width="2.90495"/>
<path opacity="0.29" d="M905.181 191.946L860.361 236.765" stroke="black" stroke-width="2.90495"/>
<path opacity="0.29" d="M905.181 191.946L950 236.765" stroke="black" stroke-width="2.90495"/>
<path opacity="0.23" d="M8.79523 236.765L-36.024 281.584" stroke="black" stroke-width="2.90495"/>
<path opacity="0.23" d="M53.6144 236.765L8.79517 281.584" stroke="black" stroke-width="2.90495"/>
<path opacity="0.23" d="M53.6145 236.765L98.4338 281.584" stroke="black" stroke-width="2.90495"/>
<path opacity="0.23" d="M143.253 236.765L98.4337 281.584" stroke="black" stroke-width="2.90495"/>
<path opacity="0.23" d="M188.072 236.765L143.253 281.584" stroke="black" stroke-width="2.90495"/>
<path opacity="0.23" d="M188.072 236.765L232.892 281.584" stroke="black" stroke-width="2.90495"/>
<path opacity="0.23" d="M232.892 236.765L277.711 281.584" stroke="black" stroke-width="2.90495"/>
<path opacity="0.23" d="M322.53 236.765L277.711 281.584" stroke="black" stroke-width="2.90495"/>
<path opacity="0.23" d="M322.53 236.765L367.349 281.584" stroke="black" stroke-width="2.90495"/>
<path opacity="0.23" d="M412.169 236.765L367.349 281.584" stroke="black" stroke-width="2.90495"/>
<path opacity="0.23" d="M412.169 236.765L456.988 281.584" stroke="black" stroke-width="2.90495"/>
<path opacity="0.23" d="M456.988 236.765L501.807 281.584" stroke="black" stroke-width="2.90495"/>
<path opacity="0.23" d="M546.627 236.765L501.807 281.584" stroke="black" stroke-width="2.90495"/>
<path opacity="0.23" d="M546.627 236.765L591.446 281.584" stroke="black" stroke-width="2.90495"/>
<path opacity="0.23" d="M636.265 236.765L591.446 281.584" stroke="black" stroke-width="2.90495"/>
<path opacity="0.23" d="M636.265 236.765L681.084 281.584" stroke="black" stroke-width="2.90495"/>
<path opacity="0.23" d="M681.084 236.765L725.904 281.584" stroke="black" stroke-width="2.90495"/>
<path opacity="0.23" d="M725.904 236.765L770.723 281.584" stroke="black" stroke-width="2.90495"/>
<path opacity="0.23" d="M815.542 236.765L770.723 281.584" stroke="black" stroke-width="2.90495"/>
<path opacity="0.23" d="M860.361 236.765L815.542 281.584" stroke="black" stroke-width="2.90495"/>
<path opacity="0.23" d="M905.181 236.765L860.361 281.584" stroke="black" stroke-width="2.90495"/>
<path opacity="0.23" d="M905.181 236.765L950 281.584" stroke="black" stroke-width="2.90495"/>
<path opacity="0.17" d="M-36.024 281.584L8.79523 326.404" stroke="black" stroke-width="2.90495"/>
<path opacity="0.17" d="M8.79517 281.584L53.6144 326.404" stroke="black" stroke-width="2.90495"/>
<path opacity="0.17" d="M98.4338 281.584L53.6145 326.404" stroke="black" stroke-width="2.90495"/>
<path opacity="0.17" d="M143.253 281.584L98.4337 326.404" stroke="black" stroke-width="2.90495"/>
<path opacity="0.17" d="M143.253 281.584L188.072 326.404" stroke="black" stroke-width="2.90495"/>
<path opacity="0.17" d="M232.892 281.584L188.072 326.404" stroke="black" stroke-width="2.90495"/>
<path opacity="0.17" d="M277.711 281.584L232.892 326.404" stroke="black" stroke-width="2.90495"/>
<path opacity="0.17" d="M322.53 281.584L277.711 326.404" stroke="black" stroke-width="2.90495"/>
<path opacity="0.17" d="M367.349 281.584L322.53 326.404" stroke="black" stroke-width="2.90495"/>
<path opacity="0.17" d="M367.349 281.584L412.169 326.404" stroke="black" stroke-width="2.90495"/>
<path opacity="0.17" d="M412.169 281.584L456.988 326.404" stroke="black" stroke-width="2.90495"/>
<path opacity="0.17" d="M501.807 281.584L456.988 326.404" stroke="black" stroke-width="2.90495"/>
<path opacity="0.17" d="M501.807 281.584L546.627 326.404" stroke="black" stroke-width="2.90495"/>
<path opacity="0.17" d="M591.446 281.584L546.627 326.404" stroke="black" stroke-width="2.90495"/>
<path opacity="0.17" d="M636.265 281.584L591.446 326.404" stroke="black" stroke-width="2.90495"/>
<path opacity="0.17" d="M681.084 281.584L636.265 326.404" stroke="black" stroke-width="2.90495"/>
<path opacity="0.17" d="M681.084 281.584L725.904 326.404" stroke="black" stroke-width="2.90495"/>
<path opacity="0.17" d="M725.904 281.584L770.723 326.404" stroke="black" stroke-width="2.90495"/>
<path opacity="0.17" d="M770.723 281.584L815.542 326.404" stroke="black" stroke-width="2.90495"/>
<path opacity="0.17" d="M860.361 281.584L815.542 326.404" stroke="black" stroke-width="2.90495"/>
<path opacity="0.17" d="M905.181 281.584L860.361 326.404" stroke="black" stroke-width="2.90495"/>
<path opacity="0.17" d="M905.181 281.584L950 326.404" stroke="black" stroke-width="2.90495"/>
<path opacity="0.1" d="M-36.024 326.404L8.79523 371.223" stroke="black" stroke-width="2.90495"/>
<path opacity="0.1" d="M53.6144 326.404L8.79517 371.223" stroke="black" stroke-width="2.90495"/>
<path opacity="0.1" d="M98.4338 326.404L53.6145 371.223" stroke="black" stroke-width="2.90495"/>
<path opacity="0.1" d="M98.4337 326.404L143.253 371.223" stroke="black" stroke-width="2.90495"/>
<path opacity="0.1" d="M188.072 326.404L143.253 371.223" stroke="black" stroke-width="2.90495"/>
<path opacity="0.1" d="M232.892 326.404L188.072 371.223" stroke="black" stroke-width="2.90495"/>
<path opacity="0.1" d="M277.711 326.404L232.892 371.223" stroke="black" stroke-width="2.90495"/>
<path opacity="0.1" d="M277.711 326.404L322.53 371.223" stroke="black" stroke-width="2.90495"/>
<path opacity="0.1" d="M367.349 326.404L322.53 371.223" stroke="black" stroke-width="2.90495"/>
<path opacity="0.1" d="M412.169 326.404L367.349 371.223" stroke="black" stroke-width="2.90495"/>
<path opacity="0.1" d="M412.169 326.404L456.988 371.223" stroke="black" stroke-width="2.90495"/>
<path opacity="0.1" d="M456.988 326.404L501.807 371.223" stroke="black" stroke-width="2.90495"/>
<path opacity="0.1" d="M501.807 326.404L546.627 371.223" stroke="black" stroke-width="2.90495"/>
<path opacity="0.1" d="M546.627 326.404L591.446 371.223" stroke="black" stroke-width="2.90495"/>
<path opacity="0.1" d="M636.265 326.404L591.446 371.223" stroke="black" stroke-width="2.90495"/>
<path opacity="0.1" d="M636.265 326.404L681.084 371.223" stroke="black" stroke-width="2.90495"/>
<path opacity="0.1" d="M681.084 326.404L725.904 371.223" stroke="black" stroke-width="2.90495"/>
<path opacity="0.1" d="M725.904 326.404L770.723 371.223" stroke="black" stroke-width="2.90495"/>
<path opacity="0.1" d="M815.542 326.404L770.723 371.223" stroke="black" stroke-width="2.90495"/>
<path opacity="0.1" d="M860.361 326.404L815.542 371.223" stroke="black" stroke-width="2.90495"/>
<path opacity="0.1" d="M860.361 326.404L905.181 371.223" stroke="black" stroke-width="2.90495"/>
<path opacity="0.1" d="M950 326.404L905.181 371.223" stroke="black" stroke-width="2.90495"/>
</g>
<g opacity="0.3">
<path opacity="0.62" d="M18.9158 1119.37L-25.9034 1074.55" stroke="black" stroke-width="2.90495"/>
<path opacity="0.62" d="M63.735 1119.37L18.9158 1074.55" stroke="black" stroke-width="2.90495"/>
<path opacity="0.62" d="M63.7351 1119.37L108.554 1074.55" stroke="black" stroke-width="2.90495"/>
<path opacity="0.62" d="M108.554 1119.37L153.374 1074.55" stroke="black" stroke-width="2.90495"/>
<path opacity="0.62" d="M153.374 1119.37L198.193 1074.55" stroke="black" stroke-width="2.90495"/>
<path opacity="0.62" d="M198.193 1119.37L243.012 1074.55" stroke="black" stroke-width="2.90495"/>
<path opacity="0.62" d="M287.831 1119.37L243.012 1074.55" stroke="black" stroke-width="2.90495"/>
<path opacity="0.62" d="M287.831 1119.37L332.651 1074.55" stroke="black" stroke-width="2.90495"/>
<path opacity="0.62" d="M377.47 1119.37L332.651 1074.55" stroke="black" stroke-width="2.90495"/>
<path opacity="0.62" d="M377.47 1119.37L422.289 1074.55" stroke="black" stroke-width="2.90495"/>
<path opacity="0.62" d="M467.109 1119.37L422.289 1074.55" stroke="black" stroke-width="2.90495"/>
<path opacity="0.62" d="M467.109 1119.37L511.928 1074.55" stroke="black" stroke-width="2.90495"/>
<path opacity="0.62" d="M511.928 1119.37L556.747 1074.55" stroke="black" stroke-width="2.90495"/>
<path opacity="0.62" d="M556.747 1119.37L601.566 1074.55" stroke="black" stroke-width="2.90495"/>
<path opacity="0.62" d="M646.386 1119.37L601.566 1074.55" stroke="black" stroke-width="2.90495"/>
<path opacity="0.62" d="M646.386 1119.37L691.205 1074.55" stroke="black" stroke-width="2.90495"/>
<path opacity="0.62" d="M736.024 1119.37L691.205 1074.55" stroke="black" stroke-width="2.90495"/>
<path opacity="0.62" d="M736.024 1119.37L780.844 1074.55" stroke="black" stroke-width="2.90495"/>
<path opacity="0.62" d="M825.663 1119.37L780.844 1074.55" stroke="black" stroke-width="2.90495"/>
<path opacity="0.62" d="M870.482 1119.37L825.663 1074.55" stroke="black" stroke-width="2.90495"/>
<path opacity="0.62" d="M915.301 1119.37L870.482 1074.55" stroke="black" stroke-width="2.90495"/>
<path opacity="0.62" d="M960.121 1119.37L915.301 1074.55" stroke="black" stroke-width="2.90495"/>
<path opacity="0.55" d="M18.9158 1074.55L-25.9034 1029.74" stroke="black" stroke-width="2.90495"/>
<path opacity="0.55" d="M63.735 1074.55L18.9158 1029.74" stroke="black" stroke-width="2.90495"/>
<path opacity="0.55" d="M63.7351 1074.55L108.554 1029.74" stroke="black" stroke-width="2.90495"/>
<path opacity="0.55" d="M153.374 1074.55L108.554 1029.74" stroke="black" stroke-width="2.90495"/>
<path opacity="0.55" d="M153.374 1074.55L198.193 1029.74" stroke="black" stroke-width="2.90495"/>
<path opacity="0.55" d="M243.012 1074.55L198.193 1029.74" stroke="black" stroke-width="2.90495"/>
<path opacity="0.55" d="M287.831 1074.55L243.012 1029.74" stroke="black" stroke-width="2.90495"/>
<path opacity="0.55" d="M287.831 1074.55L332.651 1029.74" stroke="black" stroke-width="2.90495"/>
<path opacity="0.55" d="M377.47 1074.55L332.651 1029.74" stroke="black" stroke-width="2.90495"/>
<path opacity="0.55" d="M377.47 1074.55L422.289 1029.74" stroke="black" stroke-width="2.90495"/>
<path opacity="0.55" d="M467.109 1074.55L422.289 1029.74" stroke="black" stroke-width="2.90495"/>
<path opacity="0.55" d="M467.109 1074.55L511.928 1029.74" stroke="black" stroke-width="2.90495"/>
<path opacity="0.55" d="M556.747 1074.55L511.928 1029.74" stroke="black" stroke-width="2.90495"/>
<path opacity="0.55" d="M601.566 1074.55L556.747 1029.74" stroke="black" stroke-width="2.90495"/>
<path opacity="0.55" d="M601.566 1074.55L646.386 1029.74" stroke="black" stroke-width="2.90495"/>
<path opacity="0.55" d="M691.205 1074.55L646.386 1029.74" stroke="black" stroke-width="2.90495"/>
<path opacity="0.55" d="M691.205 1074.55L736.024 1029.74" stroke="black" stroke-width="2.90495"/>
<path opacity="0.55" d="M780.844 1074.55L736.024 1029.74" stroke="black" stroke-width="2.90495"/>
<path opacity="0.55" d="M780.844 1074.55L825.663 1029.74" stroke="black" stroke-width="2.90495"/>
<path opacity="0.55" d="M870.482 1074.55L825.663 1029.74" stroke="black" stroke-width="2.90495"/>
<path opacity="0.55" d="M870.482 1074.55L915.301 1029.74" stroke="black" stroke-width="2.90495"/>
<path opacity="0.55" d="M915.301 1074.55L960.121 1029.74" stroke="black" stroke-width="2.90495"/>
<path opacity="0.49" d="M-25.9034 1029.74L18.9158 984.916" stroke="black" stroke-width="2.90495"/>
<path opacity="0.49" d="M63.735 1029.74L18.9158 984.916" stroke="black" stroke-width="2.90495"/>
<path opacity="0.49" d="M63.7351 1029.74L108.554 984.916" stroke="black" stroke-width="2.90495"/>
<path opacity="0.49" d="M108.554 1029.74L153.374 984.916" stroke="black" stroke-width="2.90495"/>
<path opacity="0.49" d="M198.193 1029.74L153.374 984.916" stroke="black" stroke-width="2.90495"/>
<path opacity="0.49" d="M243.012 1029.74L198.193 984.916" stroke="black" stroke-width="2.90495"/>
<path opacity="0.49" d="M287.831 1029.74L243.012 984.916" stroke="black" stroke-width="2.90495"/>
<path opacity="0.49" d="M332.651 1029.74L287.831 984.916" stroke="black" stroke-width="2.90495"/>
<path opacity="0.49" d="M332.651 1029.74L377.47 984.916" stroke="black" stroke-width="2.90495"/>
<path opacity="0.49" d="M377.47 1029.74L422.289 984.916" stroke="black" stroke-width="2.90495"/>
<path opacity="0.49" d="M422.289 1029.74L467.109 984.916" stroke="black" stroke-width="2.90495"/>
<path opacity="0.49" d="M467.109 1029.74L511.928 984.916" stroke="black" stroke-width="2.90495"/>
<path opacity="0.49" d="M556.747 1029.74L511.928 984.916" stroke="black" stroke-width="2.90495"/>
<path opacity="0.49" d="M601.566 1029.74L556.747 984.916" stroke="black" stroke-width="2.90495"/>
<path opacity="0.49" d="M601.566 1029.74L646.386 984.916" stroke="black" stroke-width="2.90495"/>
<path opacity="0.49" d="M691.205 1029.74L646.386 984.916" stroke="black" stroke-width="2.90495"/>
<path opacity="0.49" d="M736.024 1029.74L691.205 984.916" stroke="black" stroke-width="2.90495"/>
<path opacity="0.49" d="M780.844 1029.74L736.024 984.916" stroke="black" stroke-width="2.90495"/>
<path opacity="0.49" d="M780.844 1029.74L825.663 984.916" stroke="black" stroke-width="2.90495"/>
<path opacity="0.49" d="M825.663 1029.74L870.482 984.916" stroke="black" stroke-width="2.90495"/>
<path opacity="0.49" d="M915.301 1029.74L870.482 984.916" stroke="black" stroke-width="2.90495"/>
<path opacity="0.49" d="M960.121 1029.74L915.301 984.916" stroke="black" stroke-width="2.90495"/>
<path opacity="0.42" d="M18.9158 984.916L-25.9034 940.097" stroke="black" stroke-width="2.90495"/>
<path opacity="0.42" d="M18.9158 984.916L63.735 940.097" stroke="black" stroke-width="2.90495"/>
<path opacity="0.42" d="M108.554 984.916L63.7351 940.097" stroke="black" stroke-width="2.90495"/>
<path opacity="0.42" d="M153.374 984.916L108.554 940.097" stroke="black" stroke-width="2.90495"/>
<path opacity="0.42" d="M153.374 984.916L198.193 940.097" stroke="black" stroke-width="2.90495"/>
<path opacity="0.42" d="M198.193 984.916L243.012 940.097" stroke="black" stroke-width="2.90495"/>
<path opacity="0.42" d="M243.012 984.916L287.831 940.097" stroke="black" stroke-width="2.90495"/>
<path opacity="0.42" d="M332.651 984.916L287.831 940.097" stroke="black" stroke-width="2.90495"/>
<path opacity="0.42" d="M377.47 984.916L332.651 940.097" stroke="black" stroke-width="2.90495"/>
<path opacity="0.42" d="M422.289 984.916L377.47 940.097" stroke="black" stroke-width="2.90495"/>
<path opacity="0.42" d="M467.109 984.916L422.289 940.097" stroke="black" stroke-width="2.90495"/>
<path opacity="0.42" d="M467.109 984.916L511.928 940.097" stroke="black" stroke-width="2.90495"/>
<path opacity="0.42" d="M556.747 984.916L511.928 940.097" stroke="black" stroke-width="2.90495"/>
<path opacity="0.42" d="M601.566 984.916L556.747 940.097" stroke="black" stroke-width="2.90495"/>
<path opacity="0.42" d="M601.566 984.916L646.386 940.097" stroke="black" stroke-width="2.90495"/>
<path opacity="0.42" d="M646.386 984.916L691.205 940.097" stroke="black" stroke-width="2.90495"/>
<path opacity="0.42" d="M691.205 984.916L736.024 940.097" stroke="black" stroke-width="2.90495"/>
<path opacity="0.42" d="M780.844 984.916L736.024 940.097" stroke="black" stroke-width="2.90495"/>
<path opacity="0.42" d="M780.844 984.916L825.663 940.097" stroke="black" stroke-width="2.90495"/>
<path opacity="0.42" d="M870.482 984.916L825.663 940.097" stroke="black" stroke-width="2.90495"/>
<path opacity="0.42" d="M915.301 984.916L870.482 940.097" stroke="black" stroke-width="2.90495"/>
<path opacity="0.42" d="M915.301 984.916L960.121 940.097" stroke="black" stroke-width="2.90495"/>
<path opacity="0.36" d="M18.9158 940.097L-25.9034 895.277" stroke="black" stroke-width="2.90495"/>
<path opacity="0.36" d="M18.9158 940.097L63.735 895.277" stroke="black" stroke-width="2.90495"/>
<path opacity="0.36" d="M108.554 940.097L63.7351 895.277" stroke="black" stroke-width="2.90495"/>
<path opacity="0.36" d="M108.554 940.097L153.374 895.277" stroke="black" stroke-width="2.90495"/>
<path opacity="0.36" d="M153.374 940.097L198.193 895.277" stroke="black" stroke-width="2.90495"/>
<path opacity="0.36" d="M243.012 940.097L198.193 895.277" stroke="black" stroke-width="2.90495"/>
<path opacity="0.36" d="M243.012 940.097L287.831 895.277" stroke="black" stroke-width="2.90495"/>
<path opacity="0.36" d="M332.651 940.097L287.831 895.277" stroke="black" stroke-width="2.90495"/>
<path opacity="0.36" d="M377.47 940.097L332.651 895.277" stroke="black" stroke-width="2.90495"/>
<path opacity="0.36" d="M422.289 940.097L377.47 895.277" stroke="black" stroke-width="2.90495"/>
<path opacity="0.36" d="M422.289 940.097L467.109 895.277" stroke="black" stroke-width="2.90495"/>
<path opacity="0.36" d="M467.109 940.097L511.928 895.277" stroke="black" stroke-width="2.90495"/>
<path opacity="0.36" d="M511.928 940.097L556.747 895.277" stroke="black" stroke-width="2.90495"/>
<path opacity="0.36" d="M601.566 940.097L556.747 895.277" stroke="black" stroke-width="2.90495"/>
<path opacity="0.36" d="M601.566 940.097L646.386 895.277" stroke="black" stroke-width="2.90495"/>
<path opacity="0.36" d="M691.205 940.097L646.386 895.277" stroke="black" stroke-width="2.90495"/>
<path opacity="0.36" d="M736.024 940.097L691.205 895.277" stroke="black" stroke-width="2.90495"/>
<path opacity="0.36" d="M780.844 940.097L736.024 895.277" stroke="black" stroke-width="2.90495"/>
<path opacity="0.36" d="M780.844 940.097L825.663 895.277" stroke="black" stroke-width="2.90495"/>
<path opacity="0.36" d="M825.663 940.097L870.482 895.277" stroke="black" stroke-width="2.90495"/>
<path opacity="0.36" d="M915.301 940.097L870.482 895.277" stroke="black" stroke-width="2.90495"/>
<path opacity="0.36" d="M960.121 940.097L915.301 895.277" stroke="black" stroke-width="2.90495"/>
<path opacity="0.29" d="M-25.9034 895.277L18.9158 850.458" stroke="black" stroke-width="2.90495"/>
<path opacity="0.29" d="M18.9158 895.277L63.735 850.458" stroke="black" stroke-width="2.90495"/>
<path opacity="0.29" d="M108.554 895.277L63.7351 850.458" stroke="black" stroke-width="2.90495"/>
<path opacity="0.29" d="M153.374 895.277L108.554 850.458" stroke="black" stroke-width="2.90495"/>
<path opacity="0.29" d="M153.374 895.277L198.193 850.458" stroke="black" stroke-width="2.90495"/>
<path opacity="0.29" d="M243.012 895.277L198.193 850.458" stroke="black" stroke-width="2.90495"/>
<path opacity="0.29" d="M287.831 895.277L243.012 850.458" stroke="black" stroke-width="2.90495"/>
<path opacity="0.29" d="M287.831 895.277L332.651 850.458" stroke="black" stroke-width="2.90495"/>
<path opacity="0.29" d="M377.47 895.277L332.651 850.458" stroke="black" stroke-width="2.90495"/>
<path opacity="0.29" d="M422.289 895.277L377.47 850.458" stroke="black" stroke-width="2.90495"/>
<path opacity="0.29" d="M422.289 895.277L467.109 850.458" stroke="black" stroke-width="2.90495"/>
<path opacity="0.29" d="M467.109 895.277L511.928 850.458" stroke="black" stroke-width="2.90495"/>
<path opacity="0.29" d="M511.928 895.277L556.747 850.458" stroke="black" stroke-width="2.90495"/>
<path opacity="0.29" d="M601.566 895.277L556.747 850.458" stroke="black" stroke-width="2.90495"/>
<path opacity="0.29" d="M601.566 895.277L646.386 850.458" stroke="black" stroke-width="2.90495"/>
<path opacity="0.29" d="M646.386 895.277L691.205 850.458" stroke="black" stroke-width="2.90495"/>
<path opacity="0.29" d="M736.024 895.277L691.205 850.458" stroke="black" stroke-width="2.90495"/>
<path opacity="0.29" d="M736.024 895.277L780.844 850.458" stroke="black" stroke-width="2.90495"/>
<path opacity="0.29" d="M780.844 895.277L825.663 850.458" stroke="black" stroke-width="2.90495"/>
<path opacity="0.29" d="M825.663 895.277L870.482 850.458" stroke="black" stroke-width="2.90495"/>
<path opacity="0.29" d="M915.301 895.277L870.482 850.458" stroke="black" stroke-width="2.90495"/>
<path opacity="0.29" d="M915.301 895.277L960.121 850.458" stroke="black" stroke-width="2.90495"/>
<path opacity="0.23" d="M18.9158 850.458L-25.9034 805.639" stroke="black" stroke-width="2.90495"/>
<path opacity="0.23" d="M63.735 850.458L18.9158 805.639" stroke="black" stroke-width="2.90495"/>
<path opacity="0.23" d="M63.7351 850.458L108.554 805.639" stroke="black" stroke-width="2.90495"/>
<path opacity="0.23" d="M153.374 850.458L108.554 805.639" stroke="black" stroke-width="2.90495"/>
<path opacity="0.23" d="M198.193 850.458L153.374 805.639" stroke="black" stroke-width="2.90495"/>
<path opacity="0.23" d="M198.193 850.458L243.012 805.639" stroke="black" stroke-width="2.90495"/>
<path opacity="0.23" d="M243.012 850.458L287.831 805.639" stroke="black" stroke-width="2.90495"/>
<path opacity="0.23" d="M332.651 850.458L287.831 805.639" stroke="black" stroke-width="2.90495"/>
<path opacity="0.23" d="M332.651 850.458L377.47 805.639" stroke="black" stroke-width="2.90495"/>
<path opacity="0.23" d="M422.289 850.458L377.47 805.639" stroke="black" stroke-width="2.90495"/>
<path opacity="0.23" d="M422.289 850.458L467.109 805.639" stroke="black" stroke-width="2.90495"/>
<path opacity="0.23" d="M467.109 850.458L511.928 805.639" stroke="black" stroke-width="2.90495"/>
<path opacity="0.23" d="M556.747 850.458L511.928 805.639" stroke="black" stroke-width="2.90495"/>
<path opacity="0.23" d="M556.747 850.458L601.566 805.639" stroke="black" stroke-width="2.90495"/>
<path opacity="0.23" d="M646.386 850.458L601.566 805.639" stroke="black" stroke-width="2.90495"/>
<path opacity="0.23" d="M646.386 850.458L691.205 805.639" stroke="black" stroke-width="2.90495"/>
<path opacity="0.23" d="M691.205 850.458L736.024 805.639" stroke="black" stroke-width="2.90495"/>
<path opacity="0.23" d="M736.024 850.458L780.844 805.639" stroke="black" stroke-width="2.90495"/>
<path opacity="0.23" d="M825.663 850.458L780.844 805.639" stroke="black" stroke-width="2.90495"/>
<path opacity="0.23" d="M870.482 850.458L825.663 805.639" stroke="black" stroke-width="2.90495"/>
<path opacity="0.23" d="M915.301 850.458L870.482 805.639" stroke="black" stroke-width="2.90495"/>
<path opacity="0.23" d="M915.301 850.458L960.121 805.639" stroke="black" stroke-width="2.90495"/>
<path opacity="0.17" d="M-25.9034 805.639L18.9158 760.819" stroke="black" stroke-width="2.90495"/>
<path opacity="0.17" d="M18.9158 805.639L63.735 760.819" stroke="black" stroke-width="2.90495"/>
<path opacity="0.17" d="M108.554 805.639L63.7351 760.819" stroke="black" stroke-width="2.90495"/>
<path opacity="0.17" d="M153.374 805.639L108.554 760.819" stroke="black" stroke-width="2.90495"/>
<path opacity="0.17" d="M153.374 805.639L198.193 760.819" stroke="black" stroke-width="2.90495"/>
<path opacity="0.17" d="M243.012 805.639L198.193 760.819" stroke="black" stroke-width="2.90495"/>
<path opacity="0.17" d="M287.831 805.639L243.012 760.819" stroke="black" stroke-width="2.90495"/>
<path opacity="0.17" d="M332.651 805.639L287.831 760.819" stroke="black" stroke-width="2.90495"/>
<path opacity="0.17" d="M377.47 805.639L332.651 760.819" stroke="black" stroke-width="2.90495"/>
<path opacity="0.17" d="M377.47 805.639L422.289 760.819" stroke="black" stroke-width="2.90495"/>
<path opacity="0.17" d="M422.289 805.639L467.109 760.819" stroke="black" stroke-width="2.90495"/>
<path opacity="0.17" d="M511.928 805.639L467.109 760.819" stroke="black" stroke-width="2.90495"/>
<path opacity="0.17" d="M511.928 805.639L556.747 760.819" stroke="black" stroke-width="2.90495"/>
<path opacity="0.17" d="M601.566 805.639L556.747 760.819" stroke="black" stroke-width="2.90495"/>
<path opacity="0.17" d="M646.386 805.639L601.566 760.819" stroke="black" stroke-width="2.90495"/>
<path opacity="0.17" d="M691.205 805.639L646.386 760.819" stroke="black" stroke-width="2.90495"/>
<path opacity="0.17" d="M691.205 805.639L736.024 760.819" stroke="black" stroke-width="2.90495"/>
<path opacity="0.17" d="M736.024 805.639L780.844 760.819" stroke="black" stroke-width="2.90495"/>
<path opacity="0.17" d="M780.844 805.639L825.663 760.819" stroke="black" stroke-width="2.90495"/>
<path opacity="0.17" d="M870.482 805.639L825.663 760.819" stroke="black" stroke-width="2.90495"/>
<path opacity="0.17" d="M915.301 805.639L870.482 760.819" stroke="black" stroke-width="2.90495"/>
<path opacity="0.17" d="M915.301 805.639L960.121 760.819" stroke="black" stroke-width="2.90495"/>
<path opacity="0.1" d="M-25.9034 760.819L18.9158 716" stroke="black" stroke-width="2.90495"/>
<path opacity="0.1" d="M63.735 760.819L18.9158 716" stroke="black" stroke-width="2.90495"/>
<path opacity="0.1" d="M108.554 760.819L63.7351 716" stroke="black" stroke-width="2.90495"/>
<path opacity="0.1" d="M108.554 760.819L153.374 716" stroke="black" stroke-width="2.90495"/>
<path opacity="0.1" d="M198.193 760.819L153.374 716" stroke="black" stroke-width="2.90495"/>
<path opacity="0.1" d="M243.012 760.819L198.193 716" stroke="black" stroke-width="2.90495"/>
<path opacity="0.1" d="M287.831 760.819L243.012 716" stroke="black" stroke-width="2.90495"/>
<path opacity="0.1" d="M287.831 760.819L332.651 716" stroke="black" stroke-width="2.90495"/>
<path opacity="0.1" d="M377.47 760.819L332.651 716" stroke="black" stroke-width="2.90495"/>
<path opacity="0.1" d="M422.289 760.819L377.47 716" stroke="black" stroke-width="2.90495"/>
<path opacity="0.1" d="M422.289 760.819L467.109 716" stroke="black" stroke-width="2.90495"/>
<path opacity="0.1" d="M467.109 760.819L511.928 716" stroke="black" stroke-width="2.90495"/>
<path opacity="0.1" d="M511.928 760.819L556.747 716" stroke="black" stroke-width="2.90495"/>
<path opacity="0.1" d="M556.747 760.819L601.566 716" stroke="black" stroke-width="2.90495"/>
<path opacity="0.1" d="M646.386 760.819L601.566 716" stroke="black" stroke-width="2.90495"/>
<path opacity="0.1" d="M646.386 760.819L691.205 716" stroke="black" stroke-width="2.90495"/>
<path opacity="0.1" d="M691.205 760.819L736.024 716" stroke="black" stroke-width="2.90495"/>
<path opacity="0.1" d="M736.024 760.819L780.844 716" stroke="black" stroke-width="2.90495"/>
<path opacity="0.1" d="M825.663 760.819L780.844 716" stroke="black" stroke-width="2.90495"/>
<path opacity="0.1" d="M870.482 760.819L825.663 716" stroke="black" stroke-width="2.90495"/>
<path opacity="0.1" d="M870.482 760.819L915.301 716" stroke="black" stroke-width="2.90495"/>
<path opacity="0.1" d="M960.121 760.819L915.301 716" stroke="black" stroke-width="2.90495"/>
</g>
<g opacity="0.2">
<path fill-rule="evenodd" clip-rule="evenodd" d="M662.663 740.337H549.614C544.49 740.337 540.337 744.49 540.337 749.614V862.447C541.922 888.394 567.528 953.44 663.007 991.486C665.134 992.333 667.575 992.337 669.705 991.497C766.224 953.432 792.064 888.344 793.663 862.443V749.614C793.663 744.49 789.51 740.337 784.386 740.337H669.971H662.663ZM662.663 719H669.971H804.332H805.723C810.847 719 815 723.153 815 728.277V729.668V862.755V863.052L814.984 863.348C812.967 899.62 778.92 975.533 666.406 1015.51C666.396 1015.52 666.388 1015.52 666.385 1015.53C666.379 1015.55 666.36 1015.56 666.343 1015.55C666.339 1015.55 666.336 1015.55 666.332 1015.55C666.323 1015.55 666.312 1015.55 666.303 1015.55C666.294 1015.55 666.286 1015.56 666.278 1015.56C666.251 1015.57 666.222 1015.55 666.212 1015.53C666.207 1015.51 666.195 1015.5 666.18 1015.5C554.696 975.488 521.01 899.555 519.016 863.342L519 863.049V862.755V729.668V728.277C519 723.153 523.153 719 528.277 719H529.668H662.663Z" fill="white"/>
<path d="M608.719 861.242L644.194 894.226L725.281 818.834" stroke="white" stroke-width="21.3367" stroke-linecap="round"/>
</g>
</g>
<defs>
<filter id="filter0_b_1_774" x="-74" y="-74" width="1098" height="1228" filterUnits="userSpaceOnUse" color-interpolation-filters="sRGB">
<feFlood flood-opacity="0" result="BackgroundImageFix"/>
<feGaussianBlur in="BackgroundImage" stdDeviation="37"/>
<feComposite in2="SourceAlpha" operator="in" result="effect1_backgroundBlur_1_774"/>
<feBlend mode="normal" in="SourceGraphic" in2="effect1_backgroundBlur_1_774" result="shape"/>
</filter>
</defs>
</svg>
