<svg width="26" height="24" viewBox="0 0 26 24" fill="none" xmlns="http://www.w3.org/2000/svg">
<path d="M6.87143 3.47262C8.28304 2.65763 9.8843 2.22857 11.5143 2.22857C13.1443 2.22857 14.7455 2.65763 16.1571 3.47262C16.6901 3.78032 17.3716 3.59772 17.6793 3.06476C17.987 2.53181 17.8044 1.85032 17.2714 1.54262C15.521 0.532032 13.5355 0 11.5143 0C9.49311 0 7.50753 0.532032 5.75714 1.54262C4.00675 2.55321 2.55321 4.00675 1.54262 5.75714C0.532032 7.50754 0 9.49311 0 11.5143C0 13.5355 0.532032 15.521 1.54262 17.2714C2.55321 19.0218 4.00675 20.4754 5.75714 21.486C7.50754 22.4965 9.49311 23.0286 11.5143 23.0286C13.5355 23.0286 15.521 22.4965 17.2714 21.486C17.8044 21.1782 17.987 20.4968 17.6793 19.9638C17.3716 19.4309 16.6901 19.2482 16.1571 19.556C14.7455 20.3709 13.1443 20.8 11.5143 20.8C9.8843 20.8 8.28304 20.3709 6.87143 19.556C5.45982 18.741 4.28761 17.5688 3.47262 16.1571C2.65763 14.7455 2.22857 13.1443 2.22857 11.5143C2.22857 9.8843 2.65763 8.28304 3.47262 6.87143C4.28761 5.45982 5.45982 4.28761 6.87143 3.47262Z" fill="#EE4A47"/>
<path d="M21.2165 6.26922C20.7813 5.83407 20.0758 5.83407 19.6407 6.26922C19.2055 6.70438 19.2055 7.40991 19.6407 7.84506L22.1956 10.4H10.0286C9.41317 10.4 8.91429 10.8989 8.91429 11.5143C8.91429 12.1297 9.41317 12.6286 10.0286 12.6286H22.1956L19.6407 15.1835C19.2055 15.6187 19.2055 16.3242 19.6407 16.7593C20.0758 17.1945 20.7813 17.1945 21.2165 16.7593L25.6736 12.3022C26.1088 11.867 26.1088 11.1615 25.6736 10.7264L21.2165 6.26922Z" fill="#EE4A47"/>
</svg>
