<svg width="69" height="70" viewBox="0 0 69 70" fill="none" xmlns="http://www.w3.org/2000/svg">
<path opacity="0.5" fill-rule="evenodd" clip-rule="evenodd" d="M0.248657 35.2868V19.904C0.248657 14.6759 2.09707 10.2135 5.79391 6.51663C9.49074 2.81979 13.9532 0.971375 19.1813 0.971375H49.9469C55.175 0.971375 59.6375 2.81979 63.3343 6.51663C67.0312 10.2135 68.8796 14.6759 68.8796 19.904V50.6696C68.8796 55.8978 67.0312 60.3602 63.3343 64.0571C59.6375 67.7539 55.175 69.6023 49.9469 69.6023H19.1813C13.9532 69.6023 9.49074 67.7539 5.79391 64.0571C2.09707 60.3602 0.248657 55.8978 0.248657 50.6696V35.2868Z" fill="white"/>
<g clip-path="url(#clip0_1_670)">
<path d="M45.9637 35.1389H43.5068C43.7573 35.8246 43.8941 36.5645 43.8941 37.3357V46.6213C43.8941 46.9428 43.8381 47.2515 43.7363 47.5385H47.7981C49.3154 47.5385 50.5497 46.3041 50.5497 44.7869V39.7249C50.5498 37.1962 48.4925 35.1389 45.9637 35.1389Z" fill="#E6AE00"/>
<path d="M25.4367 37.3357C25.4367 36.5644 25.5735 35.8246 25.8239 35.1389H23.367C20.8383 35.1389 18.781 37.1962 18.781 39.7249V44.787C18.781 46.3042 20.0153 47.5386 21.5326 47.5386H25.5945C25.4926 47.2514 25.4367 46.9428 25.4367 46.6213V37.3357Z" fill="#E6AE00"/>
<path d="M37.474 32.7499H31.8572C29.3285 32.7499 27.2712 34.8072 27.2712 37.3359V46.6215C27.2712 47.128 27.6818 47.5388 28.1884 47.5388H41.1428C41.6494 47.5388 42.06 47.1281 42.06 46.6215V37.3359C42.06 34.8072 40.0027 32.7499 37.474 32.7499Z" fill="#E6AE00"/>
<path d="M34.6657 20.5901C31.6245 20.5901 29.1504 23.0643 29.1504 26.1055C29.1504 28.1683 30.2889 29.9699 31.9703 30.9157C32.7678 31.3643 33.6873 31.6207 34.6657 31.6207C35.644 31.6207 36.5635 31.3643 37.361 30.9157C39.0425 29.9699 40.1809 28.1682 40.1809 26.1055C40.1809 23.0643 37.7068 20.5901 34.6657 20.5901Z" fill="#E6AE00"/>
<path d="M24.981 25.7308C22.7066 25.7308 20.8563 27.5811 20.8563 29.8555C20.8563 32.1299 22.7066 33.9802 24.981 33.9802C25.5579 33.9802 26.1073 33.8607 26.6064 33.6458C27.4692 33.2744 28.1807 32.6168 28.6209 31.7931C28.9299 31.215 29.1057 30.5554 29.1057 29.8555C29.1057 27.5811 27.2554 25.7308 24.981 25.7308Z" fill="#E6AE00"/>
<path d="M44.3502 25.7308C42.0758 25.7308 40.2255 27.5811 40.2255 29.8555C40.2255 30.5555 40.4013 31.215 40.7103 31.7931C41.1506 32.6168 41.862 33.2744 42.7249 33.6458C43.2239 33.8607 43.7733 33.9802 44.3502 33.9802C46.6246 33.9802 48.4749 32.1299 48.4749 29.8555C48.4749 27.5811 46.6246 25.7308 44.3502 25.7308Z" fill="#E6AE00"/>
</g>
<defs>
<clipPath id="clip0_1_670">
<rect width="31.7689" height="31.7689" fill="white" transform="translate(18.7809 18.1799)"/>
</clipPath>
</defs>
</svg>
