<svg width="71" height="71" viewBox="0 0 71 71" fill="none" xmlns="http://www.w3.org/2000/svg">
<path opacity="0.5" fill-rule="evenodd" clip-rule="evenodd" d="M0.605225 35.2985V19.5259C0.605225 14.1654 2.50047 9.58983 6.29097 5.79933C10.0815 2.00884 14.657 0.113586 20.0176 0.113586H51.5626C56.9232 0.113586 61.4987 2.00884 65.2892 5.79933C69.0797 9.58983 70.975 14.1654 70.975 19.5259V51.071C70.975 56.4316 69.0797 61.0071 65.2892 64.7976C61.4987 68.5881 56.9232 70.4833 51.5626 70.4834H20.0176C14.657 70.4833 10.0815 68.5881 6.29097 64.7976C2.50047 61.0071 0.605225 56.4316 0.605225 51.071V35.2985Z" fill="white"/>
<g clip-path="url(#clip0_1_738)">
<path d="M47.4778 35.1468H44.9586C45.2154 35.8498 45.3557 36.6085 45.3557 37.3992V46.9201C45.3557 47.2498 45.2983 47.5662 45.1939 47.8605H49.3586C50.9143 47.8605 52.1799 46.5949 52.1799 45.0392V39.8489C52.18 37.2562 50.0706 35.1468 47.4778 35.1468Z" fill="#FE5B6B"/>
<path d="M26.4306 37.3992C26.4306 36.6084 26.5709 35.8498 26.8277 35.1468H24.3085C21.7157 35.1468 19.6063 37.2562 19.6063 39.849V45.0393C19.6063 46.5949 20.8719 47.8606 22.4277 47.8606H26.5924C26.488 47.5662 26.4306 47.2498 26.4306 46.9201V37.3992V37.3992Z" fill="#FE5B6B"/>
<path d="M38.7728 32.6973H33.0137C30.4209 32.6973 28.3115 34.8067 28.3115 37.3995V46.9204C28.3115 47.4397 28.7326 47.8608 29.252 47.8608H42.5346C43.054 47.8608 43.4751 47.4398 43.4751 46.9204V37.3995C43.4751 34.8067 41.3656 32.6973 38.7728 32.6973Z" fill="#FE5B6B"/>
<path d="M35.8933 20.2294C32.7751 20.2294 30.2383 22.7662 30.2383 25.8845C30.2383 27.9995 31.4057 29.8468 33.1297 30.8166C33.9474 31.2766 34.8901 31.5395 35.8933 31.5395C36.8965 31.5395 37.8392 31.2766 38.6569 30.8166C40.381 29.8468 41.5483 27.9995 41.5483 25.8845C41.5483 22.7663 39.0115 20.2294 35.8933 20.2294Z" fill="#FE5B6B"/>
<path d="M25.9635 25.5003C23.6314 25.5003 21.7343 27.3975 21.7343 29.7295C21.7343 32.0615 23.6314 33.9587 25.9635 33.9587C26.555 33.9587 27.1183 33.8362 27.63 33.6159C28.5147 33.235 29.2442 32.5608 29.6956 31.7162C30.0124 31.1234 30.1927 30.4472 30.1927 29.7295C30.1927 27.3975 28.2955 25.5003 25.9635 25.5003Z" fill="#FE5B6B"/>
<path d="M45.8233 25.5003C43.4913 25.5003 41.5941 27.3975 41.5941 29.7295C41.5941 30.4473 41.7744 31.1235 42.0912 31.7162C42.5426 32.5608 43.2721 33.2351 44.1568 33.6159C44.6685 33.8362 45.2318 33.9587 45.8233 33.9587C48.1553 33.9587 50.0525 32.0615 50.0525 29.7295C50.0525 27.3975 48.1553 25.5003 45.8233 25.5003Z" fill="#FE5B6B"/>
</g>
<defs>
<clipPath id="clip0_1_738">
<rect width="32.5738" height="32.5738" fill="white" transform="translate(19.6063 17.7582)"/>
</clipPath>
</defs>
</svg>
