<svg width="18" height="18" viewBox="0 0 18 18" fill="none" xmlns="http://www.w3.org/2000/svg">
<path d="M7.51816 3.74526C5.20609 3.74526 3.33179 5.61956 3.33179 7.93163C3.33179 10.2437 5.20609 12.118 7.51816 12.118C9.83022 12.118 11.7045 10.2437 11.7045 7.93163C11.7045 5.61956 9.83022 3.74526 7.51816 3.74526ZM1.93634 7.93163C1.93634 4.84887 4.4354 2.34981 7.51816 2.34981C10.6009 2.34981 13.1 4.84887 13.1 7.93163C13.1 9.22151 12.6624 10.4093 11.9277 11.3544L15.6865 15.1133C15.959 15.3857 15.959 15.8275 15.6865 16.1C15.4141 16.3725 14.9723 16.3725 14.6998 16.1L10.9409 12.3412C9.99579 13.0759 8.80805 13.5134 7.51816 13.5134C4.4354 13.5134 1.93634 11.0144 1.93634 7.93163Z" fill="#424242" fill-opacity="0.5"/>
</svg>
