<svg width="70" height="70" viewBox="0 0 70 70" fill="none" xmlns="http://www.w3.org/2000/svg">
<path opacity="0.5" fill-rule="evenodd" clip-rule="evenodd" d="M0 35.2913V19.7599C0 14.4813 1.86627 9.97572 5.59882 6.24317C9.33137 2.51062 13.837 0.644348 19.1156 0.644348H50.1784C55.457 0.644348 59.9626 2.51062 63.6951 6.24317C67.4277 9.97572 69.294 14.4813 69.294 19.7599V50.8227C69.294 56.1014 67.4277 60.6069 63.6951 64.3395C59.9626 68.072 55.457 69.9383 50.1784 69.9383H19.1156C13.837 69.9383 9.33137 68.072 5.59882 64.3395C1.86627 60.6069 0 56.1014 0 50.8227V35.2913Z" fill="white"/>
<g clip-path="url(#clip0_1_637)">
<path d="M46.1571 35.142H43.6765C43.9293 35.8342 44.0674 36.5813 44.0674 37.36V46.7353C44.0674 47.0599 44.0109 47.3715 43.9081 47.6613H48.0091C49.5411 47.6613 50.7873 46.415 50.7873 44.8831V39.7722C50.7874 37.2191 48.7102 35.142 46.1571 35.142Z" fill="#5E98E7"/>
<path d="M25.4317 37.36C25.4317 36.5812 25.5698 35.8342 25.8227 35.142H23.3421C20.7889 35.142 18.7117 37.2191 18.7117 39.7723V44.8832C18.7117 46.4151 19.958 47.6614 21.4899 47.6614H25.591C25.4882 47.3715 25.4317 47.0599 25.4317 46.7353V37.36Z" fill="#5E98E7"/>
<path d="M37.5853 32.7299H31.9142C29.361 32.7299 27.2839 34.8071 27.2839 37.3602V46.7355C27.2839 47.2469 27.6985 47.6616 28.2099 47.6616H41.2895C41.801 47.6616 42.2156 47.247 42.2156 46.7355V37.3602C42.2156 34.8071 40.1384 32.7299 37.5853 32.7299Z" fill="#5E98E7"/>
<path d="M34.7498 20.4527C31.6793 20.4527 29.1812 22.9507 29.1812 26.0213C29.1812 28.104 30.3307 29.923 32.0284 30.878C32.8336 31.331 33.7619 31.5898 34.7498 31.5898C35.7376 31.5898 36.6659 31.331 37.4711 30.878C39.1688 29.923 40.3183 28.104 40.3183 26.0213C40.3183 22.9508 37.8203 20.4527 34.7498 20.4527Z" fill="#5E98E7"/>
<path d="M24.9716 25.6429C22.6752 25.6429 20.8071 27.5111 20.8071 29.8075C20.8071 32.1039 22.6752 33.972 24.9716 33.972C25.5541 33.972 26.1088 33.8514 26.6127 33.6345C27.4839 33.2594 28.2022 32.5955 28.6467 31.7638C28.9587 31.1801 29.1362 30.5142 29.1362 29.8075C29.1362 27.5112 27.268 25.6429 24.9716 25.6429Z" fill="#5E98E7"/>
<path d="M44.5279 25.6429C42.2316 25.6429 40.3634 27.5111 40.3634 29.8075C40.3634 30.5143 40.5409 31.1802 40.8529 31.7638C41.2974 32.5955 42.0157 33.2595 42.8869 33.6345C43.3908 33.8514 43.9454 33.972 44.5279 33.972C46.8243 33.972 48.6925 32.1039 48.6925 29.8075C48.6925 27.5111 46.8243 25.6429 44.5279 25.6429Z" fill="#5E98E7"/>
</g>
<defs>
<clipPath id="clip0_1_637">
<rect width="32.0758" height="32.0758" fill="white" transform="translate(18.7115 18.0192)"/>
</clipPath>
</defs>
</svg>
