<svg width="24" height="24" viewBox="0 0 24 24" fill="none" xmlns="http://www.w3.org/2000/svg">
<path fill-rule="evenodd" clip-rule="evenodd" d="M12 0C5.37712 0 0 5.37712 0 12C0 18.6229 5.37712 24 12 24C18.6229 24 24 18.6229 24 12C24 5.37712 18.6229 0 12 0ZM12 1.67442C17.6986 1.67442 22.3256 6.3014 22.3256 12C22.3256 17.6986 17.6986 22.3256 12 22.3256C6.3014 22.3256 1.67442 17.6986 1.67442 12C1.67442 6.3014 6.3014 1.67442 12 1.67442Z" fill="#424242"/>
<path fill-rule="evenodd" clip-rule="evenodd" d="M2.5708 19.4199C4.76987 22.2084 8.17675 24 12 24C15.8233 24 19.2301 22.2084 21.4292 19.4199L20.5429 18.6452C18.3661 16.4383 15.3421 15.0698 12 15.0698C8.65341 15.0698 5.62382 16.4428 3.44708 18.6564C3.45043 18.653 3.06978 18.9846 2.5708 19.4199Z" fill="#424242"/>
<path d="M12 13.9535C14.6202 13.9535 16.7442 11.8294 16.7442 9.2093C16.7442 6.58916 14.6202 4.46512 12 4.46512C9.3799 4.46512 7.25586 6.58916 7.25586 9.2093C7.25586 11.8294 9.3799 13.9535 12 13.9535Z" fill="#424242"/>
</svg>
