<svg width="70" height="69" viewBox="0 0 70 69" fill="none" xmlns="http://www.w3.org/2000/svg">
<path opacity="0.5" fill-rule="evenodd" clip-rule="evenodd" d="M0.866211 34.2837V19.0035C0.866211 13.8102 2.70231 9.37747 6.3745 5.70528C10.0467 2.03309 14.4794 0.196991 19.6727 0.196991H50.2332C55.4265 0.196991 59.8592 2.03309 63.5314 5.70528C67.2036 9.37747 69.0397 13.8102 69.0397 19.0035V49.564C69.0397 54.7572 67.2036 59.19 63.5314 62.8622C59.8592 66.5343 55.4265 68.3704 50.2332 68.3704H19.6727C14.4794 68.3704 10.0467 66.5343 6.3745 62.8622C2.70231 59.19 0.866211 54.7572 0.866211 49.564V34.2837Z" fill="white"/>
<g clip-path="url(#clip0_1_711)">
<path d="M46.2762 34.1368H43.8357C44.0845 34.8178 44.2204 35.5528 44.2204 36.3189V45.5426C44.2204 45.862 44.1648 46.1686 44.0636 46.4537H48.0983C49.6055 46.4537 50.8316 45.2275 50.8316 43.7204V38.6922C50.8317 36.1804 48.7881 34.1368 46.2762 34.1368Z" fill="#00AF76"/>
<path d="M25.8858 36.3189C25.8858 35.5528 26.0217 34.8178 26.2705 34.1368H23.83C21.3181 34.1368 19.2745 36.1804 19.2745 38.6922V43.7205C19.2745 45.2276 20.5006 46.4538 22.0078 46.4538H26.0426C25.9414 46.1685 25.8858 45.862 25.8858 45.5426V36.3189V36.3189Z" fill="#00AF76"/>
<path d="M37.8431 31.7637H32.2637C29.7518 31.7637 27.7083 33.8073 27.7083 36.3192V45.5429C27.7083 46.046 28.1162 46.454 28.6193 46.454H41.4874C41.9906 46.454 42.3985 46.0461 42.3985 45.5429V36.3192C42.3985 33.8073 40.3549 31.7637 37.8431 31.7637Z" fill="#00AF76"/>
<path d="M35.0533 19.685C32.0325 19.685 29.5748 22.1426 29.5748 25.1636C29.5748 27.2126 30.7058 29.0022 32.376 29.9418C33.1682 30.3874 34.0815 30.6421 35.0533 30.6421C36.0252 30.6421 36.9385 30.3874 37.7307 29.9418C39.401 29.0022 40.5318 27.2126 40.5318 25.1636C40.5318 22.1427 38.0742 19.685 35.0533 19.685Z" fill="#00AF76"/>
<path d="M25.4333 24.7914C23.174 24.7914 21.3361 26.6293 21.3361 28.8886C21.3361 31.1478 23.174 32.9858 25.4333 32.9858C26.0063 32.9858 26.5521 32.867 27.0478 32.6537C27.9049 32.2847 28.6116 31.6314 29.0489 30.8132C29.3558 30.239 29.5305 29.5839 29.5305 28.8886C29.5305 26.6294 27.6925 24.7914 25.4333 24.7914Z" fill="#00AF76"/>
<path d="M44.6734 24.7914C42.4141 24.7914 40.5762 26.6293 40.5762 28.8886C40.5762 29.5839 40.7508 30.239 41.0577 30.8132C41.495 31.6315 42.2017 32.2847 43.0588 32.6537C43.5546 32.867 44.1003 32.9858 44.6734 32.9858C46.9326 32.9858 48.7706 31.1478 48.7706 28.8886C48.7706 26.6293 46.9326 24.7914 44.6734 24.7914Z" fill="#00AF76"/>
</g>
<defs>
<clipPath id="clip0_1_711">
<rect width="31.5572" height="31.5572" fill="white" transform="translate(19.2744 17.2909)"/>
</clipPath>
</defs>
</svg>
